<svg width="575" height="231" viewBox="0 0 575 231" fill="none" xmlns="http://www.w3.org/2000/svg">
<path d="M334.442 86.9383H296.107V106.109H334.442V86.9383Z" fill="black"/>
<path d="M7.22639 58.2839L72.3286 48.9869C84.1994 41.6944 96.5187 35.1662 109.22 29.4375C151.166 10.438 196.691 0.634069 242.743 0.684766H254.052C308.399 0.723763 361.876 14.3611 409.609 40.3529L442.464 58.2761C480.924 58.709 518.642 68.938 552.055 87.9843C565.634 95.7721 574.018 110.221 574.042 125.87V182.779C574.042 188.075 569.752 192.365 564.456 192.365H532.275C521.808 222.225 489.117 237.949 459.257 227.482C442.819 221.722 429.899 208.798 424.14 192.365H168.083C157.616 222.225 124.924 237.949 95.0641 227.482C78.6306 221.722 65.7069 208.798 59.9469 192.365H56.5074C55.2868 192.365 54.0778 192.135 52.943 191.682L21.9011 179.226C8.03364 173.736 -1.04885 160.313 -0.998154 145.404V67.772C-0.998154 63.0065 2.50771 58.9624 7.22639 58.2839ZM440.643 180.864C444.882 201.607 465.134 214.987 485.876 210.748C506.623 206.509 520.003 186.258 515.764 165.511C511.521 144.768 491.27 131.388 470.527 135.627C452.678 139.274 439.863 154.978 439.867 173.197C439.867 175.771 440.128 178.341 440.643 180.864ZM267.354 173.197H420.7C420.7 141.438 446.442 115.692 478.202 115.692C509.961 115.692 535.707 141.438 535.707 173.197H554.874V125.87C554.863 117.092 550.16 108.984 542.539 104.624C511.264 86.7676 475.877 77.3692 439.867 77.3575H267.354V173.197ZM267.354 58.1903H402.278L400.429 57.1803C359.455 34.9128 313.941 22.2893 267.354 20.2731V58.1903ZM248.187 19.852H242.763C204.14 19.8091 165.868 27.1406 129.994 41.4565L146.728 58.1903H248.187V19.852ZM76.4506 180.864C80.6896 201.607 100.941 214.987 121.688 210.748C142.43 206.509 155.81 186.258 151.571 165.511C147.332 144.768 127.077 131.388 106.334 135.627C88.4852 139.274 75.6707 154.978 75.6746 173.197C75.6746 175.771 75.9359 178.341 76.4506 180.864ZM18.1691 86.9392H46.9218V106.11H18.1691V145.404C18.1457 152.466 22.451 158.823 29.0181 161.416L56.5074 172.457C56.5074 171.575 56.6205 170.702 56.679 169.82C56.7375 168.939 56.757 167.906 56.8505 166.946C56.948 165.987 57.1391 165.028 57.2912 164.072C57.4472 163.113 57.5603 162.153 57.7514 161.284C57.9425 160.41 58.2233 159.443 58.4728 158.531C58.7224 157.622 58.9135 156.702 59.2021 155.809C59.4868 154.919 59.8338 154.065 60.1575 153.192C60.4851 152.322 60.7815 151.421 61.1169 150.556C61.4522 149.694 61.9046 148.91 62.3063 148.095C62.708 147.28 63.1018 146.387 63.5503 145.564C64.0027 144.741 64.5096 144.039 64.9425 143.275C65.3715 142.507 65.8979 141.633 66.4439 140.849C66.9938 140.061 67.5007 139.441 68.0272 138.732C68.5537 138.022 69.1503 137.187 69.7626 136.45C70.3748 135.713 70.9481 135.136 71.5448 134.532C72.1375 133.931 72.8005 133.116 73.4595 132.445C74.1225 131.774 74.7737 131.244 75.4328 130.651C76.0958 130.059 76.8055 129.357 77.5348 128.733C78.2601 128.113 79.0011 127.633 79.7264 127.087C80.4557 126.541 81.1849 125.956 81.9493 125.445C82.7175 124.938 83.5793 124.49 84.4022 123.952C85.2289 123.413 85.8997 122.992 86.6757 122.583C87.4518 122.169 88.4189 121.737 89.3003 121.315C90.1816 120.894 90.8719 120.52 91.6869 120.177C92.5019 119.83 93.6056 119.467 94.561 119.124C95.5203 118.777 96.1443 118.508 96.9593 118.25C98.0513 117.915 99.1705 117.673 100.286 117.396C101.015 117.225 101.713 116.994 102.45 116.842C103.628 116.601 104.837 116.468 106.034 116.292C106.744 116.199 107.422 116.043 108.132 115.977C110.051 115.786 111.966 115.68 113.978 115.68C145.726 115.711 171.452 141.438 171.483 173.186H248.183V77.3536H142.762C140.219 77.3536 137.782 76.3436 135.988 74.5458L111.135 49.6928C100.703 54.6571 90.5599 60.2065 80.752 66.3135C79.6211 67.0193 78.3576 67.4834 77.0356 67.6745L18.1691 76.0784V86.9392Z" fill="black"/>
</svg>
